<svg xmlns="http://www.w3.org/2000/svg" version="1.1" xmlns:xlink="http://www.w3.org/1999/xlink" xmlns:svgjs="http://svgjs.dev/svgjs" width="1500" height="1500" viewBox="0 0 1500 1500"><rect width="1500" height="1500" fill="#ffffff"></rect><g transform="matrix(0.6666666666666666,0,0,0.6666666666666666,249.93220432015465,196.7816464237518)"><svg viewBox="0 0 223 247" data-background-color="#ffffff" preserveAspectRatio="xMidYMid meet" height="1661" width="1500" xmlns="http://www.w3.org/2000/svg" xmlns:xlink="http://www.w3.org/1999/xlink"><g id="tight-bounds" transform="matrix(1,0,0,1,0.015118436605519037,-0.09999999999999432)"><svg viewBox="0 0 222.969763126789 247.2" height="247.2" width="222.969763126789"><g><svg viewBox="0 0 395.52 438.50135834069505" height="247.2" width="222.969763126789"><g transform="matrix(1,0,0,1,0,264.29254934145393)"><svg viewBox="0 0 395.52 174.2088089992411" height="174.2088089992411" width="395.52"><g id="textblocktransform"><svg viewBox="0 0 395.52 174.2088089992411" height="174.2088089992411" width="395.52" id="textblock"><g><svg viewBox="0 0 395.52 99.69660323159785" height="99.69660323159785" width="395.52"><g transform="matrix(1,0,0,1,0,0)"><svg width="395.52" viewBox="0.35 -34.1 139.24 35.1" height="99.69660323159785" data-palette-color="#31c48d"><path d="M33-33.4L33.05-33.4Q33.15-31.75 32.85-27.98 32.55-24.2 32.1-21.8L32.1-21.8 27.4-21.8 26.65-28.8 21.25-29.3 21.25-3.45 26.15-2.65 26.1 0 7.6 0 7.3-1.6Q8.75-2.6 12.2-4.1L12.2-4.1 12.2-29.3 6.75-28.8 6-21.8 1.35-21.8Q0.35-26.15 0.35-31.9L0.35-31.9 0.4-33.4 16.8-33.2 33-33.4ZM49.9-34.1L49.9-34.1Q57.2-34.1 61.92-29.08 66.65-24.05 66.65-16.1L66.65-16.1Q66.65-8.35 62.1-3.68 57.55 1 50.25 1L50.25 1Q42.85 1 38.12-3.78 33.4-8.55 33.4-16.3L33.4-16.3Q33.4-24.15 38.05-29.13 42.7-34.1 49.9-34.1ZM46.15-28.6L46.15-28.6Q44.7-27.3 43.8-24.28 42.9-21.25 42.9-17.3L42.9-17.3Q42.9-11.2 45.07-7.53 47.25-3.85 51.15-3.85L51.15-3.85Q52.4-3.85 53.5-4.25L53.5-4.25Q55.15-5.8 56.15-8.95 57.15-12.1 57.15-15.95L57.15-15.95Q57.15-21.85 55-25.55 52.85-29.25 49.25-29.25L49.25-29.25Q47.75-29.25 46.15-28.6ZM85.8-33.5L85.8-33.5Q91.3-33.5 95.25-31.1 99.2-28.7 101.22-24.88 103.25-21.05 103.25-16.85L103.25-16.85Q103.25-9.5 98.55-4.83 93.85-0.15 86.15 0L86.15 0 68.7 0 68.4-1.6Q70.3-2.9 72.65-3.95L72.65-3.95 72.65-29.95 69.1-30.45 69.15-33.1Q76.7-33.5 85.8-33.5ZM85.05-4.6L85.05-4.6Q89-4.6 91.4-7.93 93.8-11.25 93.8-16.4L93.8-16.4Q93.8-20.35 92.22-23.9 90.65-27.45 88-29.15L88-29.15 81.7-28.4 81.7-5.1Q83.4-4.6 85.05-4.6ZM122.84-34.1L122.84-34.1Q130.14-34.1 134.87-29.08 139.59-24.05 139.59-16.1L139.59-16.1Q139.59-8.35 135.04-3.68 130.49 1 123.19 1L123.19 1Q115.79 1 111.07-3.78 106.34-8.55 106.34-16.3L106.34-16.3Q106.34-24.15 110.99-29.13 115.64-34.1 122.84-34.1ZM119.09-28.6L119.09-28.6Q117.64-27.3 116.74-24.28 115.84-21.25 115.84-17.3L115.84-17.3Q115.84-11.2 118.02-7.53 120.19-3.85 124.09-3.85L124.09-3.85Q125.34-3.85 126.44-4.25L126.44-4.25Q128.09-5.8 129.09-8.95 130.09-12.1 130.09-15.95L130.09-15.95Q130.09-21.85 127.94-25.55 125.79-29.25 122.19-29.25L122.19-29.25Q120.69-29.25 119.09-28.6Z" opacity="1" transform="matrix(1,0,0,1,0,0)" fill="#31c48d" class="wordmark-text-0" data-fill-palette-color="primary" id="text-0"></path></svg></g></svg></g><g transform="matrix(1,0,0,1,75.54432,123.23257853610055)"><svg viewBox="0 0 244.43135999999998 50.97623046314058" height="50.97623046314058" width="244.43135999999998"><g transform="matrix(1,0,0,1,0,0)"><svg width="244.43135999999998" viewBox="0.45 -37.6 182.43 38.050000000000004" height="50.97623046314058" data-palette-color="#31c48d"><path d="M13.1 0L13.1 0Q11.85 0 10.85-0.53 9.85-1.05 9.85-2.05L9.85-2.05 9.85-30.7 2.5-30.7Q1.55-30.7 1-31.6 0.45-32.5 0.45-33.65L0.45-33.65Q0.45-34.7 0.95-35.63 1.45-36.55 2.5-36.55L2.5-36.55 23.65-36.55Q24.75-36.55 25.23-35.63 25.7-34.7 25.7-33.65L25.7-33.65Q25.7-32.5 25.18-31.6 24.65-30.7 23.65-30.7L23.65-30.7 16.35-30.7 16.35-2.05Q16.35-1.05 15.33-0.53 14.3 0 13.1 0ZM39.8 0.3L39.8 0.3Q36.5 0.3 33.85-0.83 31.2-1.95 29.65-4.48 28.1-7 28.1-11.15L28.1-11.15 28.1-25.1Q28.1-29.25 29.65-31.78 31.2-34.3 33.82-35.43 36.45-36.55 39.8-36.55L39.8-36.55Q43.1-36.55 45.77-35.43 48.45-34.3 50-31.78 51.55-29.25 51.55-25.1L51.55-25.1 51.55-11.15Q51.55-7 50-4.48 48.45-1.95 45.77-0.83 43.1 0.3 39.8 0.3ZM39.8-5.4L39.8-5.4Q42.25-5.4 43.65-6.8 45.05-8.2 45.05-11.15L45.05-11.15 45.05-25.1Q45.05-28.05 43.65-29.45 42.25-30.85 39.8-30.85L39.8-30.85Q37.35-30.85 35.95-29.45 34.55-28.05 34.55-25.1L34.55-25.1 34.55-11.15Q34.55-8.2 35.95-6.8 37.35-5.4 39.8-5.4ZM68.85 0L60 0Q58.7 0 57.92-0.6 57.15-1.2 57.15-2L57.15-2 57.15-34.55Q57.15-35.35 57.92-35.95 58.7-36.55 60-36.55L60-36.55 68.85-36.55Q72.2-36.55 74.85-35.43 77.5-34.3 79.07-31.78 80.65-29.25 80.65-25.1L80.65-25.1 80.65-11.45Q80.65-7.3 79.07-4.78 77.5-2.25 74.85-1.13 72.2 0 68.85 0L68.85 0ZM63.65-30.85L63.65-5.7 68.85-5.7Q71.35-5.7 72.75-7.13 74.15-8.55 74.15-11.45L74.15-11.45 74.15-25.1Q74.15-28 72.75-29.43 71.35-30.85 68.9-30.85L68.9-30.85 63.65-30.85ZM97.54 0.3L97.54 0.3Q94.24 0.3 91.59-0.83 88.94-1.95 87.39-4.48 85.84-7 85.84-11.15L85.84-11.15 85.84-25.1Q85.84-29.25 87.39-31.78 88.94-34.3 91.57-35.43 94.19-36.55 97.54-36.55L97.54-36.55Q100.84-36.55 103.52-35.43 106.19-34.3 107.74-31.78 109.29-29.25 109.29-25.1L109.29-25.1 109.29-11.15Q109.29-7 107.74-4.48 106.19-1.95 103.52-0.83 100.84 0.3 97.54 0.3ZM97.54-5.4L97.54-5.4Q99.99-5.4 101.39-6.8 102.79-8.2 102.79-11.15L102.79-11.15 102.79-25.1Q102.79-28.05 101.39-29.45 99.99-30.85 97.54-30.85L97.54-30.85Q95.09-30.85 93.69-29.45 92.29-28.05 92.29-25.1L92.29-25.1 92.29-11.15Q92.29-8.2 93.69-6.8 95.09-5.4 97.54-5.4ZM128.04 0L128.04 0Q126.64 0 125.74-0.65 124.84-1.3 124.84-2.05L124.84-2.05 124.84-35.6Q124.84-36.5 125.74-37.05 126.64-37.6 128.04-37.6L128.04-37.6Q129.39-37.6 130.34-37.05 131.29-36.5 131.29-35.6L131.29-35.6 131.29-2.05Q131.29-1.3 130.34-0.65 129.39 0 128.04 0ZM139.94 0L139.94 0Q138.54 0 137.64-0.65 136.74-1.3 136.74-2.05L136.74-2.05 136.74-21.75Q136.74-22.65 137.64-23.2 138.54-23.75 139.94-23.75L139.94-23.75Q141.29-23.75 142.24-23.2 143.19-22.65 143.19-21.75L143.19-21.75 143.19-2.05Q143.19-1.3 142.24-0.65 141.29 0 139.94 0ZM139.94-29.05L139.94-29.05Q138.49-29.05 137.44-30.03 136.39-31 136.39-32.2L136.39-32.2Q136.39-33.5 137.44-34.43 138.49-35.35 139.94-35.35L139.94-35.35Q141.39-35.35 142.41-34.43 143.44-33.5 143.44-32.2L143.44-32.2Q143.44-31 142.41-30.03 141.39-29.05 139.94-29.05ZM155.88 0.45L155.88 0.45Q153.38 0.45 151.31-0.18 149.23-0.8 148.06-1.8 146.88-2.8 146.88-3.85L146.88-3.85Q146.88-4.35 147.16-5.03 147.43-5.7 147.91-6.2 148.38-6.7 149.03-6.7L149.03-6.7Q149.73-6.7 150.51-6.13 151.28-5.55 152.46-5 153.63-4.45 155.73-4.45L155.73-4.45Q157.98-4.45 158.71-5.15 159.43-5.85 159.43-6.6L159.43-6.6Q159.43-7.7 158.56-8.3 157.68-8.9 156.33-9.3 154.98-9.7 153.46-10.13 151.93-10.55 150.58-11.28 149.23-12 148.38-13.28 147.53-14.55 147.53-16.6L147.53-16.6Q147.53-18.4 148.38-20.1 149.23-21.8 151.18-22.93 153.13-24.05 156.48-24.05L156.48-24.05Q158.53-24.05 160.36-23.63 162.18-23.2 163.33-22.45 164.48-21.7 164.48-20.8L164.48-20.8Q164.48-20.35 164.18-19.63 163.88-18.9 163.36-18.3 162.83-17.7 162.08-17.7L162.08-17.7Q161.53-17.7 160.76-18.07 159.98-18.45 158.98-18.8 157.98-19.15 156.58-19.15L156.58-19.15Q155.33-19.15 154.58-18.8 153.83-18.45 153.48-17.95 153.13-17.45 153.13-16.9L153.13-16.9Q153.13-16 153.98-15.5 154.83-15 156.21-14.65 157.58-14.3 159.11-13.88 160.63-13.45 162.01-12.63 163.38-11.8 164.23-10.45 165.08-9.1 165.08-6.85L165.08-6.85Q165.08-3.55 162.71-1.55 160.33 0.45 155.88 0.45ZM180.08 0L178.13 0Q173.63 0 171.26-1.95 168.88-3.9 168.88-8.1L168.88-8.1 168.88-32.35Q168.88-33.25 169.93-33.8 170.98-34.35 172.08-34.35L172.08-34.35Q173.28-34.35 174.31-33.8 175.33-33.25 175.33-32.35L175.33-32.35 175.33-23.75 181.23-23.75Q182.03-23.75 182.46-23.03 182.88-22.3 182.88-21.4L182.88-21.4Q182.88-20.5 182.46-19.78 182.03-19.05 181.23-19.05L181.23-19.05 175.33-19.05 175.33-8.1Q175.33-6.65 175.96-6.05 176.58-5.45 178.13-5.45L178.13-5.45 180.08-5.45Q181.48-5.45 182.16-4.6 182.83-3.75 182.83-2.75L182.83-2.75Q182.83-1.7 182.16-0.85 181.48 0 180.08 0L180.08 0Z" opacity="1" transform="matrix(1,0,0,1,0,0)" fill="#31c48d" class="slogan-text-1" data-fill-palette-color="secondary" id="text-1"></path></svg></g></svg></g></svg></g></svg></g><g transform="matrix(1,0,0,1,77.38171298152437,0)"><svg viewBox="0 0 240.75657403695124 240.75657403695124" height="240.75657403695124" width="240.75657403695124"><g><svg></svg></g><g id="icon-0"><svg viewBox="0 0 240.75657403695124 240.75657403695124" height="240.75657403695124" width="240.75657403695124"><g><path transform="scale(2.40757,2.40757)" d="M30 100c-16.569 0-30-13.431-30-30v-40c0-16.569 13.431-30 30-30h40c16.569 0 30 13.431 30 30v40c0 16.569-13.431 30-30 30z" fill="#31c48d" fill-rule="nonzero" stroke="none" stroke-width="1" stroke-linecap="butt" stroke-linejoin="miter" stroke-miterlimit="10" stroke-dasharray="" stroke-dashoffset="0" font-family="none" font-weight="none" font-size="none" text-anchor="none" style="mix-blend-mode: normal" data-fill-palette-color="accent"></path></g><g transform="matrix(1,0,0,1,48.15131480739025,52.42554651845958)"><svg viewBox="0 0 144.45394442217074 135.90548100003207" height="135.90548100003207" width="144.45394442217074"><g><svg xmlns="http://www.w3.org/2000/svg" xmlns:xlink="http://www.w3.org/1999/xlink" version="1.1" x="0" y="0" viewBox="5 7.664 90 84.674" enable-background="new 0 0 100 100" xml:space="preserve" height="135.90548100003207" width="144.45394442217074" class="icon-cg-0" data-fill-palette-color="quaternary" id="cg-0"><g fill="#ffffff" data-fill-palette-color="quaternary"><path d="M32.107 24.469c0 1.879-1.521 3.402-3.4 3.402-1.877 0-3.4-1.523-3.4-3.402 0-1.875 1.523-3.398 3.4-3.398C30.586 21.07 32.107 22.594 32.107 24.469z" fill="#ffffff" data-fill-palette-color="quaternary"></path><path d="M32.107 36.938c0 1.88-1.521 3.398-3.4 3.398-1.877 0-3.4-1.519-3.4-3.398 0-1.877 1.523-3.398 3.4-3.398C30.586 33.54 32.107 35.062 32.107 36.938z" fill="#ffffff" data-fill-palette-color="quaternary"></path><circle cx="28.707" cy="49.408" r="3.4" fill="#ffffff" data-fill-palette-color="quaternary"></circle><path d="M62.854 27.541H40.041c-1.693 0-3.069-1.374-3.069-3.072 0-1.694 1.376-3.068 3.069-3.068h22.813c1.696 0 3.069 1.374 3.069 3.068C65.924 26.167 64.551 27.541 62.854 27.541z" fill="#ffffff" data-fill-palette-color="quaternary"></path><path d="M62.854 40.011H40.041c-1.693 0-3.069-1.376-3.069-3.072s1.376-3.072 3.069-3.072h22.813c1.696 0 3.069 1.376 3.069 3.072S64.551 40.011 62.854 40.011z" fill="#ffffff" data-fill-palette-color="quaternary"></path><path d="M62.854 52.479H40.041c-1.693 0-3.069-1.376-3.069-3.07 0-1.699 1.376-3.072 3.069-3.072h22.813c1.696 0 3.069 1.373 3.069 3.072C65.924 51.103 64.551 52.479 62.854 52.479z" fill="#ffffff" data-fill-palette-color="quaternary"></path><circle cx="28.707" cy="61.102" r="3.4" fill="#ffffff" data-fill-palette-color="quaternary"></circle><path d="M62.854 64.174H40.041c-1.693 0-3.069-1.375-3.069-3.072 0-1.696 1.376-3.069 3.069-3.069h22.813c1.696 0 3.069 1.373 3.069 3.069C65.924 62.799 64.551 64.174 62.854 64.174z" fill="#ffffff" data-fill-palette-color="quaternary"></path><path d="M95 22.852c0-11.092-4.096-15.188-9.152-15.188H23.602c-5.199 0-9.432 4.229-9.432 9.433v59.298h-0.018H5c0 13.849 5.111 15.943 11.422 15.943h7.18 40.125 7.297c5.203 0 9.434-4.229 9.434-9.433V22.852H95zM76.683 82.904c0 3.12-2.538 5.659-5.659 5.659-5.052 0-7.638-1.078-7.638-12.17H50.207 17.945V17.096c0-3.12 2.534-5.659 5.656-5.659h55.572c-1.496 2.371-2.428 5.96-2.469 11.082-0.012 0.115-0.022 0.23-0.022 0.333V82.904z" fill="#ffffff" data-fill-palette-color="quaternary"></path></g></svg></g></svg></g></svg></g></svg></g><g></g></svg></g><defs></defs></svg><rect width="222.969763126789" height="247.2" fill="none" stroke="none" visibility="hidden"></rect></g></svg></g></svg>